<?xml version="1.0" encoding="utf-8"?>
<!-- Generator: Adobe Illustrator 23.0.1, SVG Export Plug-In . SVG Version: 6.00 Build 0)  -->
<svg version="1.1" id="Layer_1" xmlns="http://www.w3.org/2000/svg" xmlns:xlink="http://www.w3.org/1999/xlink" x="0px" y="0px"
	 viewBox="0 0 303.7 49.5" style="enable-background:new 0 0 303.7 49.5;" xml:space="preserve">
<style type="text/css">
	.st0{fill:#1FABF3;}
	.st1{enable-background:new    ;}
</style>
<g transform="translate(-731.306 -290.044)">
	<path class="st0" d="M759.5,290.4c3.9,9.5,7.5,18.5,11.3,27.5c0.6,1.3,0.1,1.8-1.1,2.3c-2.6,1-5.1,2.3-7.7,3.2
		c-2,0.7-3.2,1.7-2.7,4c0.7,3.1-0.9,4.5-3.7,5.6c-5.3,2-10.5,4.3-16,6.6L759.5,290.4z"/>
	<path class="st0" d="M752.7,290.3c4.3,0,4.3,0,2.9,3.5c-5.7,14.1-11.4,28.1-17.1,42.2c-0.7,1.6-1,3.5-3.5,2
		c-1.8-1.1-4.9-0.8-3.1-4.9c5.6-13,10.8-26.1,16.1-39.3C748.9,291.2,750.1,289.4,752.7,290.3z"/>
	<path class="st0" d="M769.1,335.2c0.1-1.4,0.1-2.7,0-4.1c-0.2-1.8,0.6-2.5,2.1-3.1c5.5-2.2,10.9-4.5,16.3-6.8c0.5-0.2,1-0.3,1.2-1
		c-4.6-1.9-9.2-4-13.9-5.8c-2.7-1-4.6-2.5-5.3-5.4c-0.4-1.1-0.9-2.2-1.5-3.3c1.1-0.5,1.8,0.3,2.6,0.6c7.3,3,14.4,6.2,21.7,9.1
		c2,0.8,2.6,1.8,2.5,3.9c-0.1,5,0,5-4.8,7C783.3,329.2,776.4,332.2,769.1,335.2z"/>
	<path class="st0" d="M784.1,320.8c-5.3,2.2-10.6,4.5-15.9,6.6c-1.3,0.5-2.1,0.2-5.6-1.8c5.6-2.4,10.9-4.7,16.3-6.9
		C780.9,318,782.3,319.8,784.1,320.8z"/>
	<g class="st1">
		<path class="st0" d="M920.3,323.4c-0.1-0.1-0.1-0.2-0.1-0.4c0-0.2,0.1-0.5,0.4-0.7c0.3-0.2,0.5-0.4,0.8-0.4c0.1,0,0.2,0,0.4,0.1
			c0.7,0.6,1.5,1,2.4,1.4s2,0.6,3.2,0.6c1.5,0,2.7-0.3,3.7-0.9c1-0.6,1.4-1.5,1.4-2.7c0-0.6-0.1-1.1-0.2-1.5s-0.4-0.8-0.7-1.1
			s-0.7-0.5-1.2-0.7c-0.4-0.2-1-0.4-1.7-0.7l-3.8-1.3c-1.5-0.5-2.6-1.1-3.4-1.9s-1.2-1.9-1.2-3.2c0-1.1,0.3-2,1-2.9s1.5-1.5,2.6-1.9
			s2.3-0.6,3.6-0.6c1.3,0,2.6,0.2,3.9,0.7s2.1,1,2.8,1.6c0.2,0.2,0.3,0.4,0.3,0.6c0,0.2-0.1,0.4-0.3,0.6s-0.4,0.3-0.7,0.3
			c-0.2,0-0.4-0.1-0.6-0.2c-0.5-0.4-1.3-0.8-2.2-1.2s-1.9-0.6-3-0.6c-1.5,0-2.8,0.3-3.7,0.9c-0.9,0.6-1.4,1.5-1.4,2.5
			c0,0.9,0.3,1.5,0.8,2s1.4,0.9,2.6,1.3l3.8,1.3c0.8,0.3,1.5,0.5,2,0.8c0.6,0.3,1.1,0.6,1.5,1s0.8,0.9,1.1,1.5s0.4,1.3,0.4,2
			c0,1.9-0.7,3.4-2,4.4s-3.2,1.5-5.6,1.5C924.4,326,922.1,325.1,920.3,323.4z"/>
		<path class="st0" d="M938.6,323.9c-1.3-1.4-2-3.2-2-5.5s0.7-4.2,2-5.5c1.3-1.4,3.1-2.1,5.2-2.1c2.1,0,3.9,0.7,5.2,2.1s2,3.2,2,5.5
			c0,2.3-0.7,4.2-2,5.5c-1.3,1.4-3.1,2-5.2,2S940,325.3,938.6,323.9z M947.5,314c-0.9-1.1-2.1-1.7-3.7-1.7c-1.6,0-2.8,0.6-3.7,1.7
			c-0.9,1.1-1.3,2.6-1.3,4.4c0,1.8,0.4,3.3,1.3,4.4s2.1,1.7,3.7,1.7c1.6,0,2.8-0.6,3.7-1.7s1.3-2.6,1.3-4.4S948.4,315.1,947.5,314z"
			/>
		<path class="st0" d="M954.7,325.4c-0.2-0.2-0.3-0.4-0.3-0.8v-11.9h-2.1c-0.5,0-0.8-0.2-0.8-0.7c0-0.5,0.3-0.7,0.8-0.7h2.1v-2
			c0-0.7,0.1-1.4,0.2-2c0.1-0.6,0.3-1,0.5-1.4s0.5-0.6,0.8-0.8s0.7-0.4,1-0.4s0.8-0.1,1.2-0.1h1.7c0.2,0,0.4,0.1,0.5,0.2
			c0.1,0.2,0.2,0.3,0.2,0.6s-0.1,0.4-0.2,0.6s-0.3,0.2-0.6,0.2h-1.2c-0.6,0-1.1,0.1-1.3,0.3c-0.3,0.2-0.5,0.6-0.6,1.1
			s-0.2,1.5-0.2,2.7v1h2.7c0.5,0,0.7,0.2,0.7,0.7c0,0.2-0.1,0.4-0.2,0.5s-0.3,0.2-0.6,0.2h-2.7v11.9c0,0.3-0.1,0.6-0.3,0.8
			c-0.2,0.2-0.5,0.3-0.8,0.3C955.2,325.7,954.9,325.6,954.7,325.4z"/>
		<path class="st0" d="M963.1,321.4v-8.7h-1.9c-0.6,0-0.8-0.2-0.8-0.7c0-0.5,0.3-0.7,0.8-0.7h1.9l0.2-4.3c0-0.2,0.1-0.4,0.4-0.6
			s0.4-0.3,0.7-0.3c0.2,0,0.4,0.1,0.6,0.2c0.2,0.2,0.3,0.4,0.3,0.7v4.4h2.8c0.5,0,0.8,0.2,0.8,0.7c0,0.5-0.3,0.7-0.8,0.7h-2.8v8.5
			c0,1.1,0.2,1.9,0.5,2.3s0.8,0.6,1.5,0.6h0.1l0.9,0h0c0.3,0,0.5,0.1,0.7,0.3c0.2,0.2,0.2,0.4,0.2,0.6c0,0.4-0.2,0.6-0.5,0.7
			s-0.8,0.2-1.4,0.2c-0.1,0-0.2,0-0.4,0s-0.3,0-0.5,0C964.2,325.9,963.1,324.4,963.1,321.4z"/>
		<path class="st0" d="M985.7,324.4l-4.1-11.2l-4.1,11.2c-0.3,0.8-0.8,1.3-1.5,1.3c-0.7,0-1.1-0.4-1.4-1.2l-4.4-11.9
			c-0.1-0.2-0.1-0.3-0.1-0.4c0-0.3,0.1-0.5,0.3-0.7s0.4-0.3,0.7-0.3c0.5,0,0.8,0.2,1,0.7l4,11.4l4-10.9c0.3-0.8,0.8-1.3,1.5-1.3
			s1.2,0.4,1.5,1.3l4,10.9l4-11.4c0.2-0.5,0.5-0.7,1-0.7c0.3,0,0.5,0.1,0.7,0.3s0.3,0.4,0.3,0.7c0,0.1,0,0.3-0.1,0.4l-4.4,11.9
			c-0.3,0.8-0.8,1.2-1.4,1.2C986.5,325.7,986,325.2,985.7,324.4z"/>
		<path class="st0" d="M995.1,324.9c-0.9-0.7-1.4-1.8-1.4-3.1c0-0.6,0.1-1.2,0.2-1.6c0.1-0.4,0.4-0.8,0.7-1.2s0.7-0.6,1.2-0.8
			s1.1-0.4,1.9-0.5s1.6-0.2,2.6-0.3c0.9,0,2-0.1,3.4-0.1v-1.8c0-1.1-0.3-1.9-0.9-2.4s-1.5-0.8-2.6-0.8c-0.9,0-1.7,0.1-2.4,0.3
			c-0.7,0.2-1.4,0.5-2.2,0.9c-0.1,0.1-0.2,0.1-0.3,0.1c-0.2,0-0.4-0.1-0.5-0.3s-0.2-0.4-0.2-0.6c0-0.2,0.1-0.4,0.3-0.5
			c1.5-0.9,3.3-1.4,5.4-1.4c1.8,0,3.1,0.4,4.1,1.2c1,0.8,1.5,2,1.5,3.7v9c0,0.3-0.1,0.5-0.3,0.7s-0.5,0.3-0.8,0.3
			c-0.3,0-0.5-0.1-0.7-0.2s-0.3-0.4-0.3-0.7v-1.9c-1,2.1-2.6,3.1-4.8,3.1C997.3,326,996,325.6,995.1,324.9z M1002.3,323
			c0.9-1,1.3-2.3,1.3-3.9v-0.5c-2.2,0-3.9,0.1-4.9,0.2s-1.9,0.5-2.3,0.9c-0.4,0.4-0.7,1-0.7,1.9c0,1.9,1.1,2.9,3.4,2.9
			C1000.3,324.5,1001.4,324,1002.3,323z"/>
		<path class="st0" d="M1009.4,325.4c-0.2-0.2-0.3-0.4-0.3-0.7v-12.5c0-0.3,0.1-0.6,0.3-0.7c0.2-0.2,0.5-0.3,0.7-0.3
			c0.3,0,0.5,0.1,0.8,0.3s0.3,0.4,0.3,0.7v1.7c0.2-0.9,0.7-1.7,1.4-2.3s1.6-0.9,2.7-0.9c0.2,0,0.4,0.1,0.6,0.3s0.2,0.4,0.2,0.7
			c0,0.2-0.1,0.4-0.2,0.6s-0.4,0.2-0.7,0.2c-0.7,0-1.3,0.1-1.9,0.4c-0.6,0.2-1,0.6-1.3,1s-0.5,0.8-0.7,1.3s-0.2,0.9-0.2,1.3v8.2
			c0,0.3-0.1,0.5-0.3,0.7s-0.5,0.3-0.8,0.3C1009.8,325.7,1009.6,325.6,1009.4,325.4z"/>
		<path class="st0" d="M1024.2,326c-2,0-3.7-0.7-5-2.1s-2-3.2-2-5.5c0-1.4,0.3-2.6,0.8-3.8c0.5-1.1,1.3-2.1,2.4-2.8s2.3-1.1,3.8-1.1
			c0.9,0,1.8,0.1,2.5,0.4s1.4,0.6,1.8,1c0.5,0.4,0.9,1,1.2,1.6c0.3,0.6,0.6,1.3,0.7,1.9s0.2,1.4,0.3,2.2c0,0.2-0.1,0.4-0.2,0.6
			s-0.4,0.2-0.7,0.2h-10.4c0,1.8,0.5,3.2,1.4,4.2s2.1,1.5,3.6,1.5c1,0,1.9-0.2,2.6-0.5s1.4-0.8,2.2-1.4c0.2-0.1,0.4-0.2,0.6-0.2
			c0.2,0,0.3,0.1,0.5,0.2s0.2,0.3,0.2,0.5c0,0.3-0.1,0.5-0.4,0.7c-0.7,0.7-1.5,1.2-2.4,1.6S1025.6,326,1024.2,326L1024.2,326z
			 M1028.8,317.4c-0.1-1.5-0.5-2.7-1.2-3.7s-1.8-1.4-3.2-1.4c-1.5,0-2.6,0.5-3.5,1.5s-1.3,2.2-1.4,3.6H1028.8z"/>
	</g>
	<g class="st1">
		<path class="st0" d="M822.2,324.7c-0.4,0.3-0.9,0.4-1.4,0.4c-0.5,0-0.9-0.1-1.3-0.4c-0.4-0.3-0.7-0.7-0.9-1.2l-5.3-16l-5.2,16
			c-0.2,0.5-0.5,0.9-0.9,1.2c-0.4,0.3-0.9,0.4-1.4,0.4s-0.9-0.1-1.3-0.4c-0.4-0.3-0.7-0.7-0.8-1.2l-4.8-17.6c0-0.1-0.1-0.3-0.1-0.4
			c0-0.4,0.1-0.7,0.4-1c0.3-0.2,0.6-0.4,1-0.4c0.3,0,0.6,0.1,0.9,0.3c0.3,0.2,0.4,0.4,0.5,0.7l4.4,17.1l5.3-16.3
			c0.2-0.7,0.5-1.2,0.8-1.4c0.3-0.3,0.7-0.4,1.2-0.4c0.5,0,0.9,0.1,1.2,0.4c0.3,0.2,0.6,0.7,0.8,1.5l5.3,16.3l4.4-17.1
			c0.1-0.3,0.3-0.6,0.5-0.7s0.5-0.3,0.9-0.3c0.4,0,0.7,0.1,1,0.4c0.3,0.2,0.4,0.6,0.4,1c0,0.1,0,0.3-0.1,0.4l-4.8,17.6
			C822.9,324,822.7,324.4,822.2,324.7z"/>
		<path class="st0" d="M832.6,324.5c-1.1-0.6-1.9-1.5-2.6-2.6c-0.6-1.2-1-2.5-1-4.1c0-1.4,0.3-2.6,0.8-3.7c0.5-1.1,1.3-2,2.4-2.7
			c1.1-0.7,2.4-1.1,3.8-1.1c1.1,0,2.1,0.2,3,0.6s1.5,0.9,2.1,1.6c0.5,0.7,0.9,1.4,1.1,2.2c0.3,0.8,0.4,1.7,0.4,2.7
			c0,0.3-0.1,0.5-0.2,0.7s-0.4,0.3-0.7,0.3h-10.1c0,1.7,0.5,3,1.3,3.8c0.9,0.9,2,1.3,3.4,1.3c0.9,0,1.7-0.2,2.3-0.5s1.4-0.7,2.1-1.3
			c0.2-0.1,0.4-0.2,0.6-0.2c0.2,0,0.4,0.1,0.6,0.3c0.2,0.2,0.2,0.4,0.2,0.6c0,0.3-0.1,0.6-0.4,0.8c-1.5,1.4-3.4,2.1-5.6,2.1
			C834.9,325.4,833.7,325.1,832.6,324.5z M840.4,316.7c-0.1-1.4-0.5-2.5-1.2-3.4s-1.7-1.3-3-1.3c-0.7,0-1.3,0.1-1.9,0.4
			c-0.6,0.3-1,0.6-1.4,1.1c-0.4,0.4-0.6,0.9-0.9,1.5s-0.3,1.1-0.4,1.7H840.4z"/>
		<path class="st0" d="M845.7,324.8c-0.3-0.2-0.4-0.6-0.4-1v-18.3c0-0.4,0.1-0.7,0.4-1s0.6-0.4,0.9-0.4c0.4,0,0.7,0.1,0.9,0.4
			s0.4,0.6,0.4,1v18.3c0,0.4-0.1,0.7-0.4,1c-0.3,0.2-0.6,0.4-0.9,0.4S846,325,845.7,324.8z"/>
		<path class="st0" d="M851.8,324.8c-0.3-0.2-0.4-0.6-0.4-1v-18.3c0-0.4,0.1-0.7,0.4-1s0.6-0.4,0.9-0.4c0.4,0,0.7,0.1,0.9,0.4
			s0.4,0.6,0.4,1v18.3c0,0.4-0.1,0.7-0.4,1c-0.3,0.2-0.6,0.4-0.9,0.4S852.1,325,851.8,324.8z"/>
		<path class="st0" d="M859.9,324.8c-0.8-0.4-1.5-1-2-1.7c-0.5-0.7-0.9-1.5-1.2-2.4c-0.3-0.9-0.4-1.9-0.4-2.9c0-1,0.1-2,0.4-2.9
			s0.7-1.7,1.3-2.4c0.5-0.7,1.2-1.2,2.1-1.6s1.8-0.6,2.8-0.6c1.1,0,2,0.2,2.9,0.7s1.5,1.1,1.9,2v-7.6c0-0.4,0.1-0.7,0.4-0.9
			s0.6-0.3,0.9-0.3c0.4,0,0.7,0.1,0.9,0.3c0.3,0.2,0.4,0.5,0.4,0.9v18.4c0,0.4-0.1,0.7-0.4,0.9c-0.3,0.2-0.6,0.3-0.9,0.3
			c-0.4,0-0.8-0.1-1-0.3c-0.2-0.2-0.3-0.5-0.3-0.9v-1.3c-0.5,0.9-1.1,1.6-2,2.1c-0.9,0.5-1.9,0.7-3,0.7
			C861.6,325.4,860.7,325.2,859.9,324.8z M867.7,317.8c0-0.7-0.1-1.4-0.2-2.1s-0.4-1.3-0.8-1.8c-0.3-0.5-0.8-1-1.4-1.3
			c-0.6-0.3-1.3-0.5-2-0.5c-0.8,0-1.4,0.2-2,0.5s-1,0.8-1.3,1.4c-0.3,0.6-0.5,1.2-0.7,1.8c-0.2,0.6-0.2,1.3-0.2,2
			c0,0.7,0.1,1.3,0.2,2c0.1,0.6,0.4,1.2,0.6,1.8c0.3,0.6,0.7,1.1,1.3,1.4s1.2,0.5,2,0.5C866.1,323.6,867.7,321.6,867.7,317.8z"/>
		<path class="st0" d="M874.6,323.3c-1.3-1.4-2-3.2-2-5.4c0-2.2,0.7-4,2-5.4c1.3-1.4,3.1-2.1,5.4-2.1s4,0.7,5.4,2.1
			c1.3,1.4,2,3.2,2,5.4c0,2.2-0.7,4-2,5.4c-1.3,1.4-3.1,2.1-5.4,2.1C877.7,325.4,875.9,324.7,874.6,323.3z M883.4,322
			c0.8-1,1.2-2.4,1.2-4.2c0-1.8-0.4-3.2-1.3-4.2c-0.8-1-2-1.6-3.5-1.6c-1.5,0-2.6,0.5-3.5,1.5c-0.8,1-1.2,2.4-1.2,4.2
			c0,1.8,0.4,3.2,1.2,4.2c0.8,1,2,1.5,3.4,1.5C881.4,323.6,882.6,323,883.4,322z"/>
		<path class="st0" d="M889.7,324.8c-0.3-0.2-0.4-0.5-0.4-0.9v-12c0-0.4,0.1-0.7,0.4-0.9c0.3-0.2,0.6-0.3,0.9-0.3s0.7,0.1,0.9,0.3
			s0.4,0.5,0.4,0.9v1.3c0.4-0.9,1-1.6,1.8-2.1c0.8-0.5,1.8-0.7,3-0.7c1.6,0,2.9,0.5,3.9,1.4c1,0.9,1.4,2.4,1.4,4.3v7.9
			c0,0.4-0.1,0.7-0.4,0.9c-0.3,0.2-0.6,0.3-0.9,0.3s-0.7-0.1-0.9-0.3c-0.3-0.2-0.4-0.5-0.4-0.9v-7.9c0-1.2-0.3-2.2-0.9-2.9
			s-1.4-1-2.5-1c-1.1,0-2.1,0.4-2.8,1.2c-0.8,0.8-1.2,1.9-1.3,3.3v7.3c0,0.4-0.1,0.7-0.4,0.9s-0.6,0.3-0.9,0.3S890,325,889.7,324.8z
			"/>
		<path class="st0" d="M907.8,324.5c-1.1-0.6-1.9-1.5-2.6-2.6c-0.6-1.2-1-2.5-1-4.1c0-1.4,0.3-2.6,0.8-3.7s1.3-2,2.4-2.7
			c1.1-0.7,2.3-1.1,3.8-1.1c1.1,0,2.1,0.2,3,0.6c0.9,0.4,1.5,0.9,2.1,1.6c0.5,0.7,0.9,1.4,1.1,2.2c0.3,0.8,0.4,1.7,0.4,2.7
			c0,0.3-0.1,0.5-0.2,0.7c-0.2,0.2-0.4,0.3-0.7,0.3h-10.1c0,1.7,0.5,3,1.3,3.8c0.9,0.9,2,1.3,3.4,1.3c0.9,0,1.7-0.2,2.3-0.5
			c0.7-0.3,1.4-0.7,2.1-1.3c0.2-0.1,0.4-0.2,0.6-0.2c0.2,0,0.4,0.1,0.6,0.3c0.2,0.2,0.2,0.4,0.2,0.6c0,0.3-0.1,0.6-0.4,0.8
			c-1.5,1.4-3.4,2.1-5.6,2.1C910.1,325.4,908.9,325.1,907.8,324.5z M915.6,316.7c-0.1-1.4-0.5-2.5-1.2-3.4c-0.7-0.9-1.7-1.3-3-1.3
			c-0.7,0-1.3,0.1-1.9,0.4s-1,0.6-1.4,1.1c-0.4,0.4-0.6,0.9-0.9,1.5s-0.3,1.1-0.4,1.7H915.6z"/>
	</g>
</g>
</svg>
