<?xml version="1.0" encoding="utf-8"?>
<!-- Generator: Adobe Illustrator 22.1.0, SVG Export Plug-In . SVG Version: 6.00 Build 0)  -->
<svg version="1.1" id="Layer_1" xmlns="http://www.w3.org/2000/svg" xmlns:xlink="http://www.w3.org/1999/xlink" x="0px" y="0px"
	 viewBox="0 0 213 213" style="enable-background:new 0 0 213 213;" xml:space="preserve">
<style type="text/css">
	.st0{fill:#1FABF3;}
</style>
<g>
	<path class="st0" d="M94.4,24.7c13.1,31.8,25.1,61.9,37.8,92.1c2,4.4,0.3,6-3.7,7.7c-8.7,3.3-17.1,7.7-25.8,10.7
		c-6.7,2.3-10.7,5.7-9,13.4c2.3,10.4-3,15.1-12.4,18.7c-17.7,6.7-35.2,14.4-53.6,22.1L94.4,24.7z"/>
	<path class="st0" d="M71.7,24.4c14.4,0,14.4,0,9.7,11.7c-19.1,47.2-38.2,94.1-57.3,141.3c-2.3,5.4-3.3,11.7-11.7,6.7
		c-6-3.7-16.4-2.7-10.4-16.4c18.8-43.5,36.2-87.4,53.9-131.6C58.9,27.4,63,21.4,71.7,24.4z"/>
	<path class="st0" d="M126.6,174.7c0.3-4.7,0.3-9,0-13.7c-0.7-6,2-8.4,7-10.4c18.4-7.4,36.5-15.1,54.6-22.8c1.7-0.7,3.3-1,4-3.3
		c-15.4-6.4-30.8-13.4-46.5-19.4c-9-3.3-15.4-8.4-17.7-18.1c-1.3-3.7-3-7.4-5-11c3.7-1.7,6,1,8.7,2c24.4,10,48.2,20.8,72.7,30.5
		c6.7,2.7,8.7,6,8.4,13.1c-0.3,16.7,0,16.7-16.1,23.4C174.1,154.6,151,164.7,126.6,174.7z"/>
	<path class="st0" d="M176.8,126.5c-17.7,7.4-35.5,15.1-53.2,22.1c-4.4,1.7-7,0.7-18.7-6c18.7-8,36.5-15.7,54.6-23.1
		C166.1,117.1,170.8,123.2,176.8,126.5z"/>
</g>
</svg>
