<?xml version="1.0" encoding="utf-8"?>
<!-- Generator: Adobe Illustrator 22.1.0, SVG Export Plug-In . SVG Version: 6.00 Build 0)  -->
<svg version="1.1" id="Layer_1" xmlns="http://www.w3.org/2000/svg" xmlns:xlink="http://www.w3.org/1999/xlink" x="0px" y="0px"
	 viewBox="0 0 657.2 470.1" style="enable-background:new 0 0 657.2 470.1;" xml:space="preserve">
<style type="text/css">
	.st0{fill:url(#SVGID_1_);}
</style>
<linearGradient id="SVGID_1_" gradientUnits="userSpaceOnUse" x1="514.3462" y1="329.6932" x2="137.7313" y2="-41.5986" gradientTransform="matrix(0.7783 0.1722 -0.252 1.2292 116.2605 -95.5394)">
	<stop  offset="0" style="stop-color:#55D1FF"/>
	<stop  offset="0.114" style="stop-color:#4AB7DF;stop-opacity:0.875"/>
	<stop  offset="0.556" style="stop-color:#235868;stop-opacity:0.408"/>
	<stop  offset="0.86" style="stop-color:#0A1B1D;stop-opacity:0.114"/>
	<stop  offset="1" style="stop-color:#010400;stop-opacity:0"/>
</linearGradient>
<path class="st0" d="M80.3,451.4c-2.4-3.4-1.5-7.8,2-9.9c2.9-1.7,6.8-1.2,9.4,0.9L403.5,261l2.4,3.3L94.1,445.7c1.1,3,0,6.4-3,8.1
	C87.2,455.8,83.2,454.9,80.3,451.4L80.3,451.4z M181.1,466.7c-2.4-3.4-1.5-7.8,2-9.9c3-1.7,6.8-1.2,9.4,0.9l279.7-162.7l24.6-120.1
	l114.4-66.6c-1.1-3,0-6.4,3-8.1c4-2,8-1.1,10.9,2.4c2.4,3.4,1.5,7.8-2,9.9c-3.3,1.6-6.7,1.3-9.4-0.9l-113,65.7l-24.6,120.1
	L194.9,461c1.1,3,0,6.4-2.9,8.1C188,471.1,184,470.2,181.1,466.7L181.1,466.7z M193,417.7c-2.4-3.4-1.5-7.8,2-9.9
	c2.9-1.7,6.8-1.2,9.4,0.9l232-135l13.7-66.9L149.6,381.6c1.1,3,0,6.4-3,8.1c-4,2-8,1.1-10.9-2.4c-2.4-3.4-1.5-7.8,2-9.9
	c3-1.7,6.8-1.2,9.4,0.9l308.9-179.7l-15.9,77.6L206.8,412c1.1,3,0,6.4-3,8.1C199.9,422,195.9,421.1,193,417.7L193,417.7z
	 M74.3,382.3c-2.4-3.4-1.5-7.8,2-9.9c3-1.7,6.8-1.3,9.4,0.9L592.6,78.3c-1.1-3,0-6.4,3-8.1c4-2,8-1.1,10.9,2.4
	c2.4,3.4,1.5,7.8-2,9.9c-3.3,1.6-6.7,1.3-9.4-0.9L88.1,376.6c1.1,3,0,6.4-3,8.1C81.2,386.7,77.2,385.8,74.3,382.3L74.3,382.3z
	 M113.8,235.6l172.5-100.3c-1.1-3,0-6.4,3-8.1c4-2,8-1.1,10.9,2.4c2.4,3.4,1.5,7.8-2,9.9c-3.3,1.6-6.7,1.3-9.4-0.9l-171,99.5
	l-14.5,70.6l274.3-159.6c-1.1-3,0-6.4,3-8.1c4-2,8-1.1,10.9,2.4c2.4,3.4,1.5,7.8-2,9.9c-2.9,1.7-6.8,1.3-9.4-0.9L97.1,316.9
	L113.8,235.6z M1.4,222.6c-2.4-3.4-1.5-7.8,2-9.9c3.3-1.6,6.7-1.3,9.4,0.9L288.7,53L428.5,84L546.9,15c-1.7-3.3-0.7-7.1,2.5-9
	c4-2,8-1.1,10.9,2.4c2.4,3.4,1.5,7.8-2,9.9c-2.9,1.5-5.9,1.4-8.5-0.2L429.4,88.1L289.6,57.2L15.2,216.9c1.1,3,0,6.4-3,8.1
	C8.3,227,4.2,226.1,1.4,222.6L1.4,222.6z M160.3,242.3c-2.4-3.4-1.5-7.8,2-9.9c3.9-1.9,7.8-1.1,10.7,2.2l172.2-100.2l2.4,3.3
	L174.5,238.4c0.2,2.5-1,4.9-3.3,6.3C167.2,246.7,163.2,245.8,160.3,242.3L160.3,242.3z M139.9,185c-2.4-3.4-1.5-7.8,2-9.9
	c3.3-1.6,6.7-1.3,9.4,0.9l142.8-83.1l147.7,32.7L642,9.1c-1.1-3,0-6.4,3-8.1c4-2,8-1.1,10.9,2.4c2.4,3.4,1.5,7.8-2,9.9
	c-2.9,1.7-6.8,1.2-9.4-0.9L442.8,129.7L295.1,97l-141.4,82.3c1.1,3,0,6.4-3,8.1C146.8,189.4,142.7,188.5,139.9,185L139.9,185z"/>
</svg>
